<?xml version="1.0" encoding="UTF-8"?>
<svg id="Layer_1" data-name="Layer 1" xmlns="http://www.w3.org/2000/svg" xmlns:xlink="http://www.w3.org/1999/xlink" viewBox="0 0 512 512">
  <defs>
    <style>
      .cls-1 {
        fill: url(#linear-gradient-2);
      }

      .cls-2 {
        fill: url(#linear-gradient-3);
      }

      .cls-3 {
        fill: url(#linear-gradient);
      }
    </style>
    <linearGradient id="linear-gradient" x1="316.22" y1="65.43" x2="163.37" y2="405.5" gradientUnits="userSpaceOnUse">
      <stop offset="0" stop-color="#f31c6e"/>
      <stop offset=".5" stop-color="#984fa6"/>
      <stop offset="1" stop-color="#19a7d9"/>
    </linearGradient>
    <linearGradient id="linear-gradient-2" x1="316.59" y1="65.6" x2="163.74" y2="405.66" xlink:href="#linear-gradient"/>
    <linearGradient id="linear-gradient-3" x1="316.59" y1="65.6" x2="163.74" y2="405.66" xlink:href="#linear-gradient"/>
  </defs>
  <path class="cls-3" d="m256,230.48c8.59,0,16.32-3.47,21.96-9.1,5.63-5.63,9.09-13.37,9.1-21.96,0-8.59-3.47-16.32-9.1-21.96-5.63-5.63-13.37-9.09-21.96-9.1-8.59,0-16.32,3.47-21.96,9.1-5.63,5.63-9.09,13.37-9.1,21.96,0,8.59,3.47,16.32,9.1,21.96,5.63,5.63,13.37,9.09,21.96,9.1Z"/>
  <path class="cls-1" d="m256,49.42c-82.84,0-150,67.16-150,150,0,7.49.56,14.84,1.62,22.02,0,0,7.31,53.03,51.55,112.77,42.46,57.34,96.83,128.36,96.83,128.36,0,0,12.88-16.83,31-40.72-29.29-38.92-59.63-79.46-87.7-117.36h0c-16.8-22.68-27.16-44.15-33.43-60.45-6.26-16.3-8.42-27.44-8.79-29.51l-.02-.14-.02-.14v-.09s-.02,0-.02,0c-.72-4.9-1.09-9.86-1.09-14.75,0-27.58,11.23-52.62,29.34-70.72,18.1-18.11,43.14-29.34,70.72-29.34,27.58,0,52.62,11.23,70.72,29.34,18.11,18.1,29.34,43.14,29.34,70.72,0,4.89-.37,9.85-1.09,14.75v.06s-.02.06-.02.06h0s0-.01,0-.01c-.19,1.12-2.14,12.01-8.34,28.47-6.21,16.45-16.67,38.46-33.92,61.75-16.46,22.23-34.83,46.67-51.09,68.17,10.42,13.91,20.87,27.83,31.19,41.54,18.18-24,40.38-53.46,60.03-80,44.24-59.74,51.55-112.77,51.55-112.77,1.06-7.18,1.62-14.54,1.62-22.02,0-82.84-67.16-150-150-150Z"/>
  <path class="cls-2" d="m206.72,299c15.84,21.39,33.48,44.87,49.28,65.78,15.8-20.91,33.44-44.39,49.28-65.78,16.65-22.49,26.74-43.72,32.7-59.51,5.83-15.46,7.69-25.69,7.87-26.69.65-4.45.99-8.95.98-13.37,0-25.05-10.18-47.73-26.63-64.19-16.46-16.46-39.15-26.63-64.19-26.63-25.05,0-47.73,10.18-64.19,26.63-16.46,16.46-26.63,39.15-26.63,64.19,0,4.37.33,8.83.97,13.24h.02s.05.38.05.38c.36,1.96,2.42,12.41,8.3,27.69,6.01,15.65,16.01,36.37,32.23,58.27Zm20.79-128.07c7.28-7.28,17.38-11.8,28.49-11.8,11.11,0,21.21,4.52,28.49,11.8,7.28,7.28,11.8,17.38,11.8,28.49,0,11.11-4.52,21.21-11.8,28.49-7.28,7.28-17.38,11.8-28.49,11.8-11.11,0-21.21-4.52-28.49-11.8-7.28-7.28-11.8-17.38-11.8-28.49,0-11.11,4.52-21.21,11.8-28.49Z"/>
</svg>