<?xml version="1.0" encoding="UTF-8"?>
<svg id="Layer_1" data-name="Layer 1" xmlns="http://www.w3.org/2000/svg" xmlns:xlink="http://www.w3.org/1999/xlink" viewBox="0 0 2000 2000">
  <defs>
    <style>
      .cls-1 {
        fill: url(#linear-gradient-2);
      }

      .cls-2 {
        fill: url(#linear-gradient-6);
      }

      .cls-3 {
        fill: url(#linear-gradient-5);
      }

      .cls-4 {
        fill: #03286c;
      }

      .cls-5 {
        fill: url(#linear-gradient-3);
      }

      .cls-6 {
        fill: url(#linear-gradient);
      }

      .cls-7 {
        fill: url(#linear-gradient-4);
      }
    </style>
    <linearGradient id="linear-gradient" x1="1653.8" y1="1047.31" x2="1543.84" y2="996.49" gradientUnits="userSpaceOnUse">
      <stop offset="0" stop-color="#1fa0d4"/>
      <stop offset="1" stop-color="#ea196f"/>
    </linearGradient>
    <linearGradient id="linear-gradient-2" x1="1652.27" y1="1034.28" x2="1542.31" y2="983.45" xlink:href="#linear-gradient"/>
    <linearGradient id="linear-gradient-3" x1="1657.08" y1="1023.88" x2="1547.12" y2="973.05" xlink:href="#linear-gradient"/>
    <linearGradient id="linear-gradient-4" x1="547.24" y1="821.21" x2="403.83" y2="1140.26" gradientUnits="userSpaceOnUse">
      <stop offset="0" stop-color="#f31c6e"/>
      <stop offset=".5" stop-color="#984fa6"/>
      <stop offset="1" stop-color="#19a7d9"/>
    </linearGradient>
    <linearGradient id="linear-gradient-5" x1="547.58" y1="821.36" x2="404.17" y2="1140.42" xlink:href="#linear-gradient-4"/>
    <linearGradient id="linear-gradient-6" x1="547.58" y1="821.36" x2="404.17" y2="1140.42" xlink:href="#linear-gradient-4"/>
  </defs>
  <g>
    <polygon class="cls-4" points="778.6 933.29 738.14 1001.98 697.01 933.29 681.17 933.29 681.17 1036.94 699.53 1036.94 699.53 969.18 733.58 1025.25 742.32 1025.25 776.23 968.11 776.23 1036.94 794.74 1036.94 794.44 933.29 778.6 933.29"/>
    <path class="cls-4" d="m878.17,962.09c-6.37-3.5-13.65-5.26-21.84-5.26s-15.3,1.75-21.62,5.26c-6.32,3.5-11.3,8.27-14.96,14.29-3.65,6.02-5.48,13.03-5.48,21.03s1.83,14.76,5.48,20.88c3.65,6.12,8.66,10.93,15.03,14.44,6.37,3.5,13.55,5.26,21.54,5.26s15.35-1.75,21.77-5.26c6.41-3.5,11.42-8.29,15.03-14.36,3.6-6.07,5.4-13.05,5.4-20.95s-1.8-15-5.4-21.03c-3.6-6.02-8.59-10.78-14.95-14.29Zm-1.33,48.42c-2.02,3.8-4.81,6.71-8.37,8.74-3.55,2.02-7.6,3.04-12.14,3.04s-8.29-1.01-11.85-3.04c-3.55-2.02-6.37-4.93-8.44-8.74-2.07-3.8-3.11-8.17-3.11-13.1s1.04-9.4,3.11-13.1c2.07-3.7,4.89-6.56,8.44-8.59,3.55-2.02,7.55-3.04,11.99-3.04s8.44,1.01,11.99,3.04c3.55,2.02,6.34,4.89,8.37,8.59,2.02,3.7,3.04,8.07,3.04,13.1s-1.01,9.31-3.04,13.1Z"/>
    <path class="cls-4" d="m978.12,960.54c-4.89-2.47-10.54-3.7-16.95-3.7-6.91,0-13.01,1.38-18.29,4.15-3.52,1.84-6.45,4.21-8.81,7.06v-10.17h-17.62v79.07h18.36v-39.98c0-5.33.91-9.75,2.74-13.25,1.83-3.5,4.42-6.15,7.77-7.92,3.35-1.78,7.2-2.67,11.55-2.67,6.02,0,10.66,1.73,13.92,5.18,3.26,3.46,4.89,8.69,4.89,15.7v42.94h18.51v-45.31c0-8-1.46-14.56-4.37-19.69-2.91-5.13-6.81-8.93-11.7-11.4Z"/>
    <path class="cls-4" d="m1072.66,961.95c-6.02-3.41-12.88-5.11-20.58-5.11s-14.93,1.75-21.1,5.26c-6.17,3.5-11.01,8.29-14.51,14.36-3.51,6.07-5.26,13.06-5.26,20.95s1.8,14.88,5.4,20.95c3.6,6.07,8.69,10.86,15.25,14.36,6.56,3.5,14.24,5.26,23.03,5.26,6.91,0,13.05-1.09,18.43-3.26,5.38-2.17,9.9-5.33,13.55-9.48l-10.07-11.55c-2.77,2.86-5.92,5.03-9.48,6.52-3.55,1.48-7.55,2.22-11.99,2.22-5.23,0-9.82-1.01-13.77-3.04-3.95-2.02-6.99-4.86-9.11-8.51-1.34-2.3-2.25-4.82-2.75-7.55h62.05c.1-.79.17-1.7.22-2.74.05-1.04.07-1.9.07-2.59,0-8.39-1.73-15.64-5.18-21.77-3.46-6.12-8.19-10.88-14.21-14.29Zm-40.57,21.1c1.87-3.55,4.56-6.29,8.07-8.22,3.5-1.92,7.48-2.89,11.92-2.89s8.49.96,11.85,2.89c3.35,1.93,6,4.64,7.92,8.14,1.35,2.46,2.19,5.15,2.55,8.07h-44.82c.41-2.91,1.24-5.58,2.51-8Z"/>
    <path class="cls-4" d="m1141.11,1016.53l-25.07-58.66h-19.1l34.53,79.24-1.36,3.09c-1.78,4.05-3.7,6.91-5.77,8.59-2.07,1.68-4.79,2.52-8.14,2.52-2.57,0-5.01-.5-7.33-1.48-2.32-.99-4.42-2.27-6.29-3.85l-7.26,13.47c2.47,2.27,5.63,4.05,9.48,5.33,3.85,1.28,7.75,1.93,11.7,1.93,4.34,0,8.37-.72,12.07-2.15,3.7-1.43,7.06-3.85,10.07-7.26,3.01-3.41,5.75-8.02,8.22-13.84l37.02-85.58h-17.77l-24.98,58.66Z"/>
    <polygon class="cls-4" points="1294.62 933.29 1254.16 1001.98 1213.03 933.29 1197.19 933.29 1197.19 1036.94 1215.55 1036.94 1215.55 969.18 1249.6 1025.25 1258.34 1025.25 1292.25 968.11 1292.25 1036.94 1310.76 1036.94 1310.46 933.29 1294.62 933.29"/>
    <path class="cls-4" d="m1393.67,965.13c-6.22-5.53-15.1-8.29-26.65-8.29-6.32,0-12.39.84-18.21,2.52-5.83,1.68-10.91,4.15-15.25,7.4l7.26,13.47c3.06-2.47,6.71-4.39,10.96-5.77,4.24-1.38,8.54-2.07,12.88-2.07,6.71,0,11.72,1.51,15.03,4.52,3.31,3.01,4.96,7.23,4.96,12.66v1.18h-20.58c-8,0-14.41,1.04-19.25,3.11-4.84,2.07-8.32,4.89-10.44,8.44-2.12,3.55-3.18,7.55-3.18,11.99s1.21,8.61,3.63,12.22c2.42,3.6,5.85,6.42,10.29,8.44,4.44,2.02,9.62,3.04,15.55,3.04,7.11,0,12.93-1.28,17.47-3.85,3.13-1.77,5.59-4.04,7.4-6.8v9.61h17.47v-46.35c0-11.45-3.11-19.94-9.33-25.47Zm-16.95,56.27c-3.61,2.07-7.68,3.11-12.22,3.11s-8.44-.99-11.11-2.96c-2.67-1.97-4-4.59-4-7.85,0-3.06,1.11-5.6,3.33-7.63,2.22-2.02,6.44-3.04,12.66-3.04h19.25v9.18c-1.68,4.05-4.32,7.11-7.92,9.18Z"/>
    <path class="cls-4" d="m1490.95,961.87c-6.02-3.35-12.88-5.03-20.58-5.03-6.61,0-12.59,1.46-17.92,4.37-3.14,1.71-5.84,3.97-8.14,6.75v-10.08h-17.62v107.8h18.36v-38.36c2.24,2.58,4.79,4.69,7.7,6.31,5.23,2.91,11.11,4.37,17.62,4.37,7.7,0,14.56-1.68,20.58-5.03,6.02-3.35,10.78-8.07,14.29-14.14,3.5-6.07,5.26-13.2,5.26-21.4s-1.75-15.2-5.26-21.32c-3.5-6.12-8.27-10.86-14.29-14.21Zm-2.37,48.57c-2.07,3.75-4.86,6.66-8.37,8.74-3.5,2.07-7.53,3.11-12.07,3.11s-8.29-1.04-11.85-3.11c-3.55-2.07-6.37-4.98-8.44-8.74-2.07-3.75-3.11-8.09-3.11-13.03s1.04-9.4,3.11-13.1c2.07-3.7,4.89-6.56,8.44-8.59,3.55-2.02,7.5-3.04,11.85-3.04s8.56,1.01,12.07,3.04c3.5,2.02,6.29,4.89,8.37,8.59,2.07,3.7,3.11,8.07,3.11,13.1s-1.04,9.28-3.11,13.03Z"/>
    <g>
      <rect class="cls-6" x="1547.29" y="964.2" width="13.77" height="74.12"/>
      <polygon class="cls-1" points="1650 1035.03 1647.49 1041.78 1640.37 1041.78 1613.61 1015.02 1622.48 1007.51 1650 1035.03"/>
      <path class="cls-5" d="m1639.91,986.49c-1.71-4.49-4.09-8.42-7.17-11.79-3.07-3.36-6.71-5.96-10.92-7.77-4.2-1.82-8.77-2.73-13.7-2.73s-9.59.93-13.79,2.78c-4.2,1.85-7.85,4.46-10.96,7.82-3.11,3.36-5.51,7.28-7.22,11.74-1.71,4.46-2.55,9.37-2.55,14.72s.85,10.26,2.55,14.72c1.71,4.46,4.11,8.37,7.22,11.74,3.11,3.36,6.76,5.97,10.96,7.82,4.2,1.85,8.8,2.78,13.79,2.78s9.5-.91,13.7-2.73c4.2-1.81,7.84-4.41,10.92-7.77,3.07-3.36,5.46-7.29,7.17-11.79,1.71-4.49,2.56-9.42,2.56-14.77s-.86-10.28-2.56-14.77Zm-11.09,24.42c-1.09,2.9-2.66,5.45-4.7,7.63-2.04,2.19-4.4,3.86-7.11,5.04-2.7,1.17-5.67,1.76-8.89,1.76s-6.21-.58-8.98-1.76c-2.77-1.17-5.16-2.85-7.16-5.04-2.01-2.19-3.59-4.73-4.74-7.63-1.16-2.91-1.73-6.12-1.73-9.64s.58-6.74,1.73-9.64c1.15-2.9,2.73-5.45,4.74-7.63,2.01-2.19,4.39-3.86,7.16-5.04,2.76-1.17,5.76-1.76,8.98-1.76s6.19.58,8.89,1.76c2.71,1.17,5.07,2.85,7.11,5.04,2.04,2.19,3.61,4.73,4.7,7.63,1.09,2.91,1.64,6.12,1.64,9.64s-.54,6.74-1.64,9.64Z"/>
    </g>
  </g>
  <g>
    <path class="cls-7" d="m490.73,976.05c8.06,0,15.32-3.25,20.6-8.53,5.28-5.29,8.53-12.54,8.53-20.6,0-8.06-3.25-15.32-8.53-20.6-5.29-5.28-12.54-8.53-20.6-8.53-8.06,0-15.32,3.25-20.6,8.53-5.28,5.29-8.53,12.54-8.53,20.6,0,8.06,3.25,15.32,8.53,20.6,5.29,5.28,12.54,8.53,20.6,8.53Z"/>
    <path class="cls-3" d="m490.73,806.18c-77.72,0-140.73,63.01-140.73,140.73,0,7.02.53,13.92,1.52,20.66,0,0,6.86,49.75,48.37,105.8,39.84,53.8,90.85,120.43,90.85,120.43,0,0,12.09-15.79,29.09-38.2-27.48-36.52-55.95-74.55-82.28-110.11h0c-15.76-21.28-25.49-41.42-31.36-56.72-5.87-15.3-7.9-25.75-8.25-27.68l-.02-.13-.02-.13v-.08s-.02,0-.02,0c-.68-4.6-1.02-9.25-1.02-13.84,0-25.88,10.54-49.37,27.53-66.35,16.98-16.99,40.48-27.53,66.35-27.53,25.88,0,49.37,10.54,66.35,27.53,16.99,16.98,27.53,40.48,27.53,66.35,0,4.59-.34,9.24-1.02,13.84v.06s-.02.06-.02.06h0s0-.01,0-.01c-.18,1.05-2,11.27-7.83,26.71-5.82,15.43-15.64,36.08-31.82,57.93-15.44,20.86-32.68,43.79-47.93,63.96,9.78,13.06,19.58,26.11,29.26,38.98,17.06-22.52,37.88-50.16,56.32-75.06,41.51-56.05,48.37-105.8,48.37-105.8.99-6.74,1.52-13.64,1.52-20.66,0-77.72-63.01-140.73-140.73-140.73Z"/>
    <path class="cls-2" d="m444.5,1040.35c14.86,20.07,31.41,42.09,46.23,61.72,14.83-19.62,31.37-41.64,46.23-61.72,15.62-21.1,25.09-41.02,30.68-55.84,5.47-14.5,7.22-24.11,7.38-25.04.61-4.17.92-8.4.92-12.55,0-23.5-9.55-44.78-24.99-60.23-15.45-15.44-36.73-24.99-60.23-24.99-23.5,0-44.78,9.55-60.23,24.99-15.44,15.45-24.99,36.73-24.99,60.23,0,4.1.31,8.28.91,12.42h.02s.04.36.04.36c.33,1.84,2.27,11.64,7.78,25.98,5.64,14.69,15.02,34.12,30.24,54.67Zm19.51-120.16c6.83-6.83,16.3-11.07,26.73-11.07,10.42,0,19.9,4.24,26.73,11.07,6.83,6.83,11.07,16.3,11.07,26.73,0,10.42-4.24,19.9-11.07,26.73-6.83,6.83-16.3,11.07-26.73,11.07-10.42,0-19.9-4.24-26.73-11.07-6.83-6.83-11.07-16.3-11.07-26.73,0-10.42,4.24-19.9,11.07-26.73Z"/>
  </g>
</svg>