<?xml version="1.0" encoding="UTF-8"?>
<svg id="Layer_1" data-name="Layer 1" xmlns="http://www.w3.org/2000/svg" xmlns:xlink="http://www.w3.org/1999/xlink" viewBox="0 0 1028 1028">
  <defs>
    <style>
      .cls-1 {
        fill: url(#linear-gradient-2);
      }

      .cls-2 {
        fill: url(#linear-gradient-6);
      }

      .cls-3 {
        fill: url(#linear-gradient-5);
      }

      .cls-4 {
        fill: url(#linear-gradient-7);
      }

      .cls-5 {
        fill: url(#linear-gradient-9);
      }

      .cls-6 {
        fill: url(#linear-gradient-3);
      }

      .cls-7 {
        fill: url(#linear-gradient);
      }

      .cls-8 {
        fill: url(#linear-gradient-4);
      }

      .cls-9 {
        fill: url(#linear-gradient-8);
      }
    </style>
    <linearGradient id="linear-gradient" x1="390.44" y1="807.16" x2="388.36" y2="810.43" gradientUnits="userSpaceOnUse">
      <stop offset="0" stop-color="#f31c6e"/>
      <stop offset=".5" stop-color="#984fa6"/>
      <stop offset="1" stop-color="#19a7d9"/>
    </linearGradient>
    <linearGradient id="linear-gradient-2" x1="814.93" y1="628.97" x2="802.66" y2="648.23" xlink:href="#linear-gradient"/>
    <linearGradient id="linear-gradient-3" x1="643.62" y1="800.91" x2="633.58" y2="816.68" xlink:href="#linear-gradient"/>
    <linearGradient id="linear-gradient-4" x1="222.58" y1="633.3" x2="215.83" y2="643.9" xlink:href="#linear-gradient"/>
    <linearGradient id="linear-gradient-5" x1="700.31" y1="221.62" x2="313.48" y2="828.68" xlink:href="#linear-gradient"/>
    <linearGradient id="linear-gradient-6" x1="225.23" y1="379.94" x2="213.18" y2="398.86" xlink:href="#linear-gradient"/>
    <linearGradient id="linear-gradient-7" x1="394.49" y1="211.21" x2="384.31" y2="227.2" xlink:href="#linear-gradient"/>
    <linearGradient id="linear-gradient-8" x1="700.31" y1="221.62" x2="313.48" y2="828.68" xlink:href="#linear-gradient"/>
    <linearGradient id="linear-gradient-9" x1="724.51" y1="237.04" x2="337.68" y2="844.1" xlink:href="#linear-gradient"/>
  </defs>
  <polygon class="cls-7" points="389.4 808.79 389.4 808.79 389.4 808.79 389.4 808.79"/>
  <polygon class="cls-1" points="808.79 638.6 808.79 638.6 808.79 638.6 808.79 638.6"/>
  <polygon class="cls-6" points="638.6 808.79 638.6 808.79 638.6 808.79 638.6 808.79"/>
  <polygon class="cls-8" points="219.21 638.6 219.21 638.6 219.21 638.6 219.21 638.6"/>
  <path class="cls-3" d="m808.89,389.63c-4.3-10.18-16.03-14.94-26.21-10.64-10.18,4.3-14.94,16.03-10.64,26.21h0c14.59,34.56,21.96,71.05,21.96,108.81,0,37.83-7.41,74.39-22.05,109.02h0c-14.13,33.39-34.25,63.25-59.96,88.97-25.73,25.72-55.58,45.84-88.97,59.96h0c-34.62,14.64-71.18,22.04-109.02,22.05-37.83,0-74.39-7.41-109.02-22.05h0c-33.39-14.13-63.24-34.25-88.97-59.97-25.72-25.73-45.84-55.58-59.96-88.97h0c-14.64-34.63-22.04-71.19-22.05-109.02,0-37.83,7.41-74.39,22.05-109.02h0c14.13-33.39,34.25-63.25,59.96-88.97,25.73-25.72,55.58-45.84,88.97-59.96h0c34.62-14.64,71.18-22.04,109.02-22.05,37.76,0,74.25,7.37,108.81,21.96,10.18,4.3,21.91-.47,26.21-10.64,4.3-10.18-.47-21.91-10.64-26.21-39.44-16.66-81.39-25.12-124.37-25.11-43.07,0-85.1,8.49-124.6,25.21-38.09,16.1-72.37,39.21-101.67,68.52-29.31,29.3-52.42,63.58-68.52,101.67-16.72,39.5-25.21,81.53-25.21,124.6,0,43.07,8.49,85.1,25.21,124.6,16.1,38.09,39.21,72.37,68.52,101.67,29.3,29.31,63.58,52.42,101.67,68.52,39.5,16.72,81.53,25.21,124.6,25.21,43.07,0,85.1-8.49,124.6-25.21,38.09-16.1,72.37-39.21,101.67-68.52,29.31-29.3,52.42-63.58,68.52-101.67,16.72-39.5,25.21-81.53,25.21-124.6,0-42.99-8.45-84.94-25.11-124.37Z"/>
  <polygon class="cls-2" points="219.21 389.4 219.21 389.4 219.21 389.4 219.21 389.4"/>
  <polygon class="cls-4" points="389.4 219.21 389.4 219.21 389.4 219.21 389.4 219.21"/>
  <path class="cls-9" d="m420.67,375.55c13.33-9,28.01-16.13,43.68-21,15.67-4.87,32.32-7.5,49.65-7.5,7.71,0,15.28.52,22.68,1.53,10.94,1.49,21.03-6.17,22.52-17.12,1.49-10.94-6.17-21.03-17.12-22.52-9.19-1.25-18.57-1.9-28.08-1.9-28.52,0-55.79,5.79-80.56,16.27-37.17,15.72-68.73,41.94-91.04,74.96-11.16,16.51-20,34.73-26.05,54.19-6.05,19.45-9.31,40.15-9.31,61.53,0,28.52,5.79,55.79,16.27,80.56,15.72,37.17,41.94,68.73,74.96,91.04,16.51,11.16,34.73,20,54.19,26.05,19.45,6.05,40.15,9.31,61.53,9.31,28.52,0,55.79-5.79,80.56-16.27,37.17-15.72,68.73-41.94,91.04-74.96,11.16-16.51,20-34.73,26.05-54.19,6.05-19.45,9.31-40.15,9.31-61.53,0-9.51-.64-18.89-1.9-28.08-1.49-10.94-11.57-18.61-22.52-17.12-10.94,1.49-18.61,11.57-17.12,22.52h0c1.01,7.4,1.53,14.98,1.53,22.68,0,23.11-4.67,45.02-13.11,64.98-12.66,29.94-33.85,55.47-60.51,73.47-13.33,9-28.01,16.13-43.68,21-15.67,4.87-32.32,7.5-49.65,7.5-23.11,0-45.02-4.67-64.98-13.11-29.94-12.66-55.47-33.85-73.47-60.51-9-13.33-16.13-28.01-21-43.68-4.87-15.67-7.5-32.32-7.5-49.65,0-23.11,4.67-45.02,13.11-64.98,12.66-29.94,33.85-55.47,60.51-73.47Z"/>
  <path class="cls-5" d="m550.15,449.57c-10.7-6.02-23.02-9.48-36.15-9.48-40.76,0-73.91,33.16-73.91,73.91s33.16,73.91,73.91,73.91,73.91-33.16,73.91-73.91c0-13.13-3.45-25.45-9.48-36.15l142.75-142.75h45.22l47.6-47.6h-69.57c-.56-.74-1.15-1.45-1.82-2.12s-1.39-1.26-2.12-1.82v-69.57l-47.6,47.6v45.22l-142.75,142.75Z"/>
</svg>